{
  "accessors": [
    {
      "bufferView": 2,
      "componentType": 5126,
      "count": 4854,
      "max": [
        7.19290018081665,
        -0.935699999332428,
        4.649799823760986
      ],
      "min": [
        6.586599826812744,
        -1.051900029182434,
        4.043600082397461
      ],
      "type": "VEC3"
    },
    {
      "bufferView": 2,
      "byteOffset": 58248,
      "componentType": 5126,
      "count": 4854,
      "max": [
        0.9999999403953552,
        0.9999186396598816,
        0.9999999403953552
      ],
      "min": [
        -0.9999999403953552,
        -0.9999746084213257,
        -0.9999999403953552
      ],
      "type": "VEC3"
    },
    {
      "bufferView": 1,
      "componentType": 5126,
      "count": 4854,
      "max": [
        0.620199978351593,
        0.6080999970436096
      ],
      "min": [
        0.0,
        0.0
      ],
      "type": "VEC2"
    },
    {
      "bufferView": 0,
      "componentType": 5125,
      "count": 25578,
      "type": "SCALAR"
    },
    {
      "bufferView": 2,
      "byteOffset": 116496,
      "componentType": 5126,
      "count": 483,
      "max": [
        8.546500205993652,
        0.14390000700950623,
        6.460599899291992
      ],
      "min": [
        7.863100051879883,
        -0.6855999827384949,
        5.574900150299072
      ],
      "type": "VEC3"
    },
    {
      "bufferView": 2,
      "byteOffset": 122292,
      "componentType": 5126,
      "count": 483,
      "max": [
        0.9999825358390808,
        0.9999999403953552,
        0.999487578868866
      ],
      "min": [
        -0.9999302625656128,
        -0.9793438911437988,
        -0.9997646808624268
      ],
      "type": "VEC3"
    },
    {
      "bufferView": 1,
      "byteOffset": 38832,
      "componentType": 5126,
      "count": 483,
      "max": [
        6.381899833679199,
        11.113300323486328
      ],
      "min": [
        -4.3171000480651855,
        -0.8194000124931335
      ],
      "type": "VEC2"
    },
    {
      "bufferView": 0,
      "byteOffset": 102312,
      "componentType": 5125,
      "count": 1410,
      "type": "SCALAR"
    },
    {
      "bufferView": 2,
      "byteOffset": 128088,
      "componentType": 5126,
      "count": 481,
      "max": [
        5.916500091552734,
        0.14390000700950623,
        6.460599899291992
      ],
      "min": [
        5.232999801635742,
        -0.6855999827384949,
        5.574900150299072
      ],
      "type": "VEC3"
    },
    {
      "bufferView": 2,
      "byteOffset": 133860,
      "componentType": 5126,
      "count": 481,
      "max": [
        0.9999302625656128,
        0.9999999403953552,
        0.999487578868866
      ],
      "min": [
        -0.9999825358390808,
        -0.9793438911437988,
        -0.9997646808624268
      ],
      "type": "VEC3"
    },
    {
      "bufferView": 1,
      "byteOffset": 42696,
      "componentType": 5126,
      "count": 481,
      "max": [
        4.473499774932861,
        11.113300323486328
      ],
      "min": [
        -3.8124001026153564,
        -0.9165999889373779
      ],
      "type": "VEC2"
    },
    {
      "bufferView": 0,
      "byteOffset": 107952,
      "componentType": 5125,
      "count": 1398,
      "type": "SCALAR"
    },
    {
      "bufferView": 2,
      "byteOffset": 139632,
      "componentType": 5126,
      "count": 8843,
      "max": [
        9.739299774169922,
        1.27839994430542,
        8.597000122070313
      ],
      "min": [
        4.040200233459473,
        -1.3875000476837158,
        3.6816000938415527
      ],
      "type": "VEC3"
    },
    {
      "bufferView": 2,
      "byteOffset": 245748,
      "componentType": 5126,
      "count": 8843,
      "max": [
        0.9999999403953552,
        0.9999999403953552,
        0.9999999403953552
      ],
      "min": [
        -0.9999999403953552,
        -0.9999999403953552,
        -0.9999999403953552
      ],
      "type": "VEC3"
    },
    {
      "bufferView": 1,
      "byteOffset": 46544,
      "componentType": 5126,
      "count": 8843,
      "max": [
        9.666199684143066,
        10.908499717712402
      ],
      "min": [
        -3.8124001026153564,
        -4.451000213623047
      ],
      "type": "VEC2"
    },
    {
      "bufferView": 0,
      "byteOffset": 113544,
      "componentType": 5125,
      "count": 44898,
      "type": "SCALAR"
    },
    {
      "bufferView": 2,
      "byteOffset": 351864,
      "componentType": 5126,
      "count": 9276,
      "max": [
        8.557999610900879,
        0.14390000700950623,
        6.626699924468994
      ],
      "min": [
        5.22160005569458,
        -1.4068000316619873,
        4.3333001136779785
      ],
      "type": "VEC3"
    },
    {
      "bufferView": 2,
      "byteOffset": 463176,
      "componentType": 5126,
      "count": 9276,
      "max": [
        0.9999999403953552,
        0.9999999403953552,
        0.9999999403953552
      ],
      "min": [
        -0.9999999403953552,
        -0.9999999403953552,
        -0.9999999403953552
      ],
      "type": "VEC3"
    },
    {
      "bufferView": 1,
      "byteOffset": 117288,
      "componentType": 5126,
      "count": 9276,
      "max": [
        6.463900089263916,
        11.018699645996094
      ],
      "min": [
        -4.3171000480651855,
        -7.285900115966797
      ],
      "type": "VEC2"
    },
    {
      "bufferView": 0,
      "byteOffset": 293136,
      "componentType": 5125,
      "count": 47781,
      "type": "SCALAR"
    },
    {
      "bufferView": 2,
      "byteOffset": 574488,
      "componentType": 5126,
      "count": 3266,
      "max": [
        6.903299808502197,
        -1.0241999626159668,
        4.714200019836426
      ],
      "min": [
        5.868599891662598,
        -1.2228000164031982,
        4.333600044250488
      ],
      "type": "VEC3"
    },
    {
      "bufferView": 2,
      "byteOffset": 613680,
      "componentType": 5126,
      "count": 3266,
      "max": [
        0.9985604286193848,
        0.999841570854187,
        0.9998098611831665
      ],
      "min": [
        -0.9979183673858643,
        -0.9999151825904846,
        -0.9999999403953552
      ],
      "type": "VEC3"
    },
    {
      "bufferView": 1,
      "byteOffset": 191496,
      "componentType": 5126,
      "count": 3266,
      "max": [
        0.47110000252723694,
        2.8062000274658203
      ],
      "min": [
        -0.15700000524520874,
        -0.35370001196861267
      ],
      "type": "VEC2"
    },
    {
      "bufferView": 0,
      "byteOffset": 484260,
      "componentType": 5125,
      "count": 16821,
      "type": "SCALAR"
    },
    {
      "bufferView": 2,
      "byteOffset": 652872,
      "componentType": 5126,
      "count": 15974,
      "max": [
        10.496199607849121,
        1.4417999982833862,
        9.388999938964844
      ],
      "min": [
        7.401899814605713,
        0.8985000252723694,
        6.561399936676025
      ],
      "type": "VEC3"
    },
    {
      "bufferView": 2,
      "byteOffset": 844560,
      "componentType": 5126,
      "count": 15974,
      "max": [
        0.9998910427093506,
        0.9999999403953552,
        0.9999624490737915
      ],
      "min": [
        -0.9999999403953552,
        -0.9999999403953552,
        -0.999930739402771
      ],
      "type": "VEC3"
    },
    {
      "bufferView": 1,
      "byteOffset": 217624,
      "componentType": 5126,
      "count": 15974,
      "max": [
        10.24590015411377,
        7.98799991607666
      ],
      "min": [
        -2.7713000774383545,
        -4.451000213623047
      ],
      "type": "VEC2"
    },
    {
      "bufferView": 0,
      "byteOffset": 551544,
      "componentType": 5125,
      "count": 92766,
      "type": "SCALAR"
    },
    {
      "bufferView": 2,
      "byteOffset": 1036248,
      "componentType": 5126,
      "count": 16497,
      "max": [
        6.377600193023682,
        1.4417999982833862,
        9.388799667358398
      ],
      "min": [
        3.2832000255584717,
        0.8985000252723694,
        6.561500072479248
      ],
      "type": "VEC3"
    },
    {
      "bufferView": 2,
      "byteOffset": 1234212,
      "componentType": 5126,
      "count": 16497,
      "max": [
        0.9999999403953552,
        0.9999999403953552,
        0.9999892711639404
      ],
      "min": [
        -0.9998910427093506,
        -0.9999999403953552,
        -0.999930739402771
      ],
      "type": "VEC3"
    },
    {
      "bufferView": 1,
      "byteOffset": 345416,
      "componentType": 5126,
      "count": 16497,
      "max": [
        10.246000289916992,
        7.98799991607666
      ],
      "min": [
        -2.7713000774383545,
        -4.257500171661377
      ],
      "type": "VEC2"
    },
    {
      "bufferView": 0,
      "byteOffset": 922608,
      "componentType": 5125,
      "count": 95892,
      "type": "SCALAR"
    },
    {
      "bufferView": 2,
      "byteOffset": 1432176,
      "componentType": 5126,
      "count": 3496,
      "max": [
        9.787199974060059,
        3.353600025177002,
        9.126399993896484
      ],
      "min": [
        3.9911999702453613,
        -0.7821000218391418,
        3.5634000301361084
      ],
      "type": "VEC3"
    },
    {
      "bufferView": 2,
      "byteOffset": 1474128,
      "componentType": 5126,
      "count": 3496,
      "max": [
        0.9999999403953552,
        0.9999999403953552,
        0.9999999403953552
      ],
      "min": [
        -0.9999999403953552,
        -0.9999999403953552,
        -0.9999999403953552
      ],
      "type": "VEC3"
    },
    {
      "bufferView": 1,
      "byteOffset": 477392,
      "componentType": 5126,
      "count": 3496,
      "max": [
        14.330400466918945,
        13.008700370788574
      ],
      "min": [
        -2.6558001041412354,
        -0.8790000081062317
      ],
      "type": "VEC2"
    },
    {
      "bufferView": 0,
      "byteOffset": 1306176,
      "componentType": 5125,
      "count": 17772,
      "type": "SCALAR"
    },
    {
      "bufferView": 2,
      "byteOffset": 1516080,
      "componentType": 5126,
      "count": 10856,
      "max": [
        10.388500213623047,
        2.595599889755249,
        4.518599987030029
      ],
      "min": [
        6.889800071716309,
        -2.654599905014038,
        -0.03370000049471855
      ],
      "type": "VEC3"
    },
    {
      "bufferView": 2,
      "byteOffset": 1646352,
      "componentType": 5126,
      "count": 10856,
      "max": [
        0.9999666810035706,
        0.9995759725570679,
        0.9999995231628418
      ],
      "min": [
        -0.9999999403953552,
        -0.9999848008155823,
        -0.9999999403953552
      ],
      "type": "VEC3"
    },
    {
      "bufferView": 1,
      "byteOffset": 505360,
      "componentType": 5126,
      "count": 10856,
      "max": [
        40.9922981262207,
        40.85490036010742
      ],
      "min": [
        -5.1539998054504395,
        0.0
      ],
      "type": "VEC2"
    },
    {
      "bufferView": 0,
      "byteOffset": 1377264,
      "componentType": 5125,
      "count": 58764,
      "type": "SCALAR"
    },
    {
      "bufferView": 2,
      "byteOffset": 1776624,
      "componentType": 5126,
      "count": 10652,
      "max": [
        6.889800071716309,
        2.595599889755249,
        4.518599987030029
      ],
      "min": [
        3.3910000324249268,
        -2.654400110244751,
        -0.03370000049471855
      ],
      "type": "VEC3"
    },
    {
      "bufferView": 2,
      "byteOffset": 1904448,
      "componentType": 5126,
      "count": 10652,
      "max": [
        0.9999999403953552,
        0.999816358089447,
        0.9999979734420776
      ],
      "min": [
        -0.9999666810035706,
        -0.9999848008155823,
        -0.9999999403953552
      ],
      "type": "VEC3"
    },
    {
      "bufferView": 1,
      "byteOffset": 592208,
      "componentType": 5126,
      "count": 10652,
      "max": [
        40.9921989440918,
        40.85490036010742
      ],
      "min": [
        -5.160900115966797,
        0.0
      ],
      "type": "VEC2"
    },
    {
      "bufferView": 0,
      "byteOffset": 1612320,
      "componentType": 5125,
      "count": 57594,
      "type": "SCALAR"
    },
    {
      "bufferView": 2,
      "byteOffset": 2032272,
      "componentType": 5126,
      "count": 7268,
      "max": [
        9.939900398254395,
        -0.5415999889373779,
        5.704800128936768
      ],
      "min": [
        3.839600086212158,
        -2.694999933242798,
        0.3228999972343445
      ],
      "type": "VEC3"
    },
    {
      "bufferView": 2,
      "byteOffset": 2119488,
      "componentType": 5126,
      "count": 7268,
      "max": [
        0.9999999403953552,
        0.9999999403953552,
        0.9999999403953552
      ],
      "min": [
        -0.9999999403953552,
        -0.9999920725822449,
        -0.9999982118606567
      ],
      "type": "VEC3"
    },
    {
      "bufferView": 1,
      "byteOffset": 677424,
      "componentType": 5126,
      "count": 7268,
      "max": [
        21.90690040588379,
        21.3533992767334
      ],
      "min": [
        -1.6467000246047974,
        -4.438300132751465
      ],
      "type": "VEC2"
    },
    {
      "bufferView": 0,
      "byteOffset": 1842696,
      "componentType": 5125,
      "count": 31476,
      "type": "SCALAR"
    }
  ],
  "asset": {
    "extras": {
      "author": "liebherr996litronic (https://sketchfab.com/liebherr996litronic)",
      "license": "CC-BY-4.0 (http://creativecommons.org/licenses/by/4.0/)",
      "source": "https://sketchfab.com/3d-models/teddy-bear-f2dfc8e3d88b4304b2bc17f90d595a05",
      "title": "TEDDY  BEAR"
    },
    "generator": "Sketchfab-14.34.0",
    "version": "2.0"
  },
  "bufferViews": [
    {
      "buffer": 0,
      "byteLength": 1968600,
      "name": "floatBufferViews",
      "target": 34963
    },
    {
      "buffer": 0,
      "byteLength": 735568,
      "byteOffset": 1968600,
      "byteStride": 8,
      "name": "floatBufferViews",
      "target": 34962
    },
    {
      "buffer": 0,
      "byteLength": 2206704,
      "byteOffset": 2704168,
      "byteStride": 12,
      "name": "floatBufferViews",
      "target": 34962
    }
  ],
  "buffers": [
    {
      "byteLength": 4910872,
      "uri": "scene.bin"
    }
  ],
  "materials": [
    {
      "doubleSided": true,
      "name": "Material__25",
      "pbrMetallicRoughness": {
        "baseColorFactor": [
          0.0020548508178306287,
          0.0019093746537364252,
          0.0019093746537364252,
          1.0
        ],
        "metallicFactor": 0.0,
        "roughnessFactor": 0.6
      }
    },
    {
      "doubleSided": true,
      "name": "Material__26",
      "pbrMetallicRoughness": {
        "metallicFactor": 0.0,
        "roughnessFactor": 0.6
      }
    },
    {
      "doubleSided": true,
      "name": "Material__27",
      "pbrMetallicRoughness": {
        "baseColorFactor": [
          0.8103699510436352,
          0.35181700042501296,
          0.0939349839790023,
          1.0
        ],
        "metallicFactor": 0.0,
        "roughnessFactor": 0.6
      }
    },
    {
      "doubleSided": true,
      "name": "Material__28",
      "pbrMetallicRoughness": {
        "baseColorFactor": [
          0.12422350449809373,
          0.2894415265021739,
          0.7926760664667007,
          1.0
        ],
        "metallicFactor": 0.0,
        "roughnessFactor": 0.6
      }
    },
    {
      "doubleSided": true,
      "name": "Material__29",
      "pbrMetallicRoughness": {
        "baseColorFactor": [
          0.21011185746313066,
          0.356388867272483,
          0.855605185835103,
          1.0
        ],
        "metallicFactor": 0.0,
        "roughnessFactor": 0.6
      }
    },
    {
      "doubleSided": true,
      "name": "Material__30",
      "pbrMetallicRoughness": {
        "baseColorFactor": [
          0.09760766351008722,
          0.035018534465587,
          0.008772347643016948,
          1.0
        ],
        "metallicFactor": 0.0,
        "roughnessFactor": 0.6
      }
    },
    {
      "doubleSided": true,
      "name": "Material__31",
      "pbrMetallicRoughness": {
        "baseColorFactor": [
          0.2953043464009595,
          0.002580686535962798,
          0.002580686535962798,
          1.0
        ],
        "metallicFactor": 0.0,
        "roughnessFactor": 0.6
      }
    }
  ],
  "meshes": [
    {
      "name": "Object_0",
      "primitives": [
        {
          "attributes": {
            "NORMAL": 1,
            "POSITION": 0,
            "TEXCOORD_0": 2
          },
          "indices": 3,
          "material": 6,
          "mode": 4
        }
      ]
    },
    {
      "name": "Object_1",
      "primitives": [
        {
          "attributes": {
            "NORMAL": 5,
            "POSITION": 4,
            "TEXCOORD_0": 6
          },
          "indices": 7,
          "material": 3,
          "mode": 4
        }
      ]
    },
    {
      "name": "Object_2",
      "primitives": [
        {
          "attributes": {
            "NORMAL": 9,
            "POSITION": 8,
            "TEXCOORD_0": 10
          },
          "indices": 11,
          "material": 4,
          "mode": 4
        }
      ]
    },
    {
      "name": "Object_3",
      "primitives": [
        {
          "attributes": {
            "NORMAL": 13,
            "POSITION": 12,
            "TEXCOORD_0": 14
          },
          "indices": 15,
          "material": 1,
          "mode": 4
        }
      ]
    },
    {
      "name": "Object_4",
      "primitives": [
        {
          "attributes": {
            "NORMAL": 17,
            "POSITION": 16,
            "TEXCOORD_0": 18
          },
          "indices": 19,
          "material": 0,
          "mode": 4
        }
      ]
    },
    {
      "name": "Object_5",
      "primitives": [
        {
          "attributes": {
            "NORMAL": 21,
            "POSITION": 20,
            "TEXCOORD_0": 22
          },
          "indices": 23,
          "material": 0,
          "mode": 4
        }
      ]
    },
    {
      "name": "Object_6",
      "primitives": [
        {
          "attributes": {
            "NORMAL": 25,
            "POSITION": 24,
            "TEXCOORD_0": 26
          },
          "indices": 27,
          "material": 2,
          "mode": 4
        }
      ]
    },
    {
      "name": "Object_7",
      "primitives": [
        {
          "attributes": {
            "NORMAL": 29,
            "POSITION": 28,
            "TEXCOORD_0": 30
          },
          "indices": 31,
          "material": 2,
          "mode": 4
        }
      ]
    },
    {
      "name": "Object_8",
      "primitives": [
        {
          "attributes": {
            "NORMAL": 33,
            "POSITION": 32,
            "TEXCOORD_0": 34
          },
          "indices": 35,
          "material": 2,
          "mode": 4
        }
      ]
    },
    {
      "name": "Object_9",
      "primitives": [
        {
          "attributes": {
            "NORMAL": 37,
            "POSITION": 36,
            "TEXCOORD_0": 38
          },
          "indices": 39,
          "material": 2,
          "mode": 4
        }
      ]
    },
    {
      "name": "Object_10",
      "primitives": [
        {
          "attributes": {
            "NORMAL": 41,
            "POSITION": 40,
            "TEXCOORD_0": 42
          },
          "indices": 43,
          "material": 2,
          "mode": 4
        }
      ]
    },
    {
      "name": "Object_11",
      "primitives": [
        {
          "attributes": {
            "NORMAL": 45,
            "POSITION": 44,
            "TEXCOORD_0": 46
          },
          "indices": 47,
          "material": 5,
          "mode": 4
        }
      ]
    }
  ],
  "nodes": [
    {
      "children": [
        1
      ],
      "matrix": [
        1.0,
        0.0,
        0.0,
        0.0,
        0.0,
        2.220446049250313e-16,
        -1.0,
        0.0,
        0.0,
        1.0,
        2.220446049250313e-16,
        0.0,
        0.0,
        0.0,
        0.0,
        1.0
      ],
      "name": "Sketchfab_model"
    },
    {
      "children": [
        2,
        3,
        4,
        5,
        6,
        7,
        8,
        9,
        10,
        11,
        12,
        13
      ],
      "name": "teddy bear.obj.cleaner.materialmerger.gles"
    },
    {
      "mesh": 0,
      "name": "Object_2"
    },
    {
      "mesh": 1,
      "name": "Object_3"
    },
    {
      "mesh": 2,
      "name": "Object_4"
    },
    {
      "mesh": 3,
      "name": "Object_5"
    },
    {
      "mesh": 4,
      "name": "Object_6"
    },
    {
      "mesh": 5,
      "name": "Object_7"
    },
    {
      "mesh": 6,
      "name": "Object_8"
    },
    {
      "mesh": 7,
      "name": "Object_9"
    },
    {
      "mesh": 8,
      "name": "Object_10"
    },
    {
      "mesh": 9,
      "name": "Object_11"
    },
    {
      "mesh": 10,
      "name": "Object_12"
    },
    {
      "mesh": 11,
      "name": "Object_13"
    }
  ],
  "scene": 0,
  "scenes": [
    {
      "name": "Sketchfab_Scene",
      "nodes": [
        0
      ]
    }
  ]
}
